<?xml version="1.0" encoding="UTF-8"?>
<svg version="1.1" xmlns="http://www.w3.org/2000/svg" width="512" height="512">
<path d="M0 0 C2.61312557 2.32430242 5.16690506 4.70084345 7.70947266 7.10253906 C9.77900301 9.04827849 11.87503895 10.8838999 14.06884766 12.68457031 C17.89332886 15.9312522 21.03026536 19.66845124 24.25634766 23.49707031 C25.52865234 24.955 25.52865234 24.955 26.82666016 26.44238281 C68.08857423 73.92633155 84.19036429 134.59124442 80.11639404 196.62823486 C76.35130835 244.14364546 54.26837793 291.41950965 21.65087891 325.95019531 C19.70513948 328.01972566 17.86951807 330.11576161 16.06884766 332.30957031 C12.82216577 336.13405152 9.08496673 339.27098801 5.25634766 342.49707031 C4.28439453 343.34527344 3.31244141 344.19347656 2.31103516 345.06738281 C-45.17291358 386.32929689 -105.83782645 402.43108695 -167.87481689 398.3571167 C-215.3902275 394.59203101 -262.66609168 372.50910058 -297.19677734 339.89160156 C-299.2663077 337.94586214 -301.36234364 336.11024073 -303.55615234 334.30957031 C-307.38063355 331.06288842 -310.51757005 327.32568938 -313.74365234 323.49707031 C-314.59185547 322.52511719 -315.44005859 321.55316406 -316.31396484 320.55175781 C-357.57587892 273.06780908 -373.67766898 212.40289621 -369.60369873 150.36590576 C-365.83861304 102.85049516 -343.75568262 55.57463097 -311.13818359 21.04394531 C-309.19244417 18.97441496 -307.35682276 16.87837901 -305.55615234 14.68457031 C-302.30947045 10.8600891 -298.57227141 7.72315261 -294.74365234 4.49707031 C-293.77169922 3.64886719 -292.79974609 2.80066406 -291.79833984 1.92675781 C-222.88707505 -57.95475504 -120.39017454 -68.974567 0 0 Z " fill="#DD4A7E" transform="translate(400.74365234375,82.5029296875)"/>
<path d="M0 0 C1.0940918 -0.00350464 2.18818359 -0.00700928 3.31542969 -0.01062012 C6.90452567 -0.01936703 10.49342181 -0.01361232 14.08251953 -0.00683594 C16.59538816 -0.0081848 19.10825653 -0.01012718 21.62112427 -0.01263428 C26.87797044 -0.01557618 32.13476549 -0.0115121 37.39160156 -0.00195312 C43.43894194 0.00891745 49.48614726 0.00541051 55.53348434 -0.00560594 C61.38648554 -0.01583518 67.23943612 -0.01467622 73.09244156 -0.00884247 C75.56659082 -0.0075151 78.04074357 -0.00912144 80.51488876 -0.01380157 C83.98397479 -0.01892359 87.45280765 -0.01107677 90.921875 0 C91.92900543 -0.00404846 92.93613586 -0.00809692 93.9737854 -0.01226807 C116.34517774 0.11898369 134.70006658 8.64155223 150.59033203 24.25878906 C151.21681641 24.87238281 151.84330078 25.48597656 152.48876953 26.11816406 C166.47161517 40.92353004 171.7297057 60.43532145 171.75146484 80.32788086 C171.75642975 81.42153458 171.76139465 82.51518829 171.76651001 83.64198303 C171.78107203 87.24733112 171.7879239 90.85263519 171.79345703 94.45800781 C171.79921362 96.97516378 171.80497128 99.49231975 171.81072998 102.00947571 C171.81988434 106.61121697 171.82619134 111.21294573 171.82922673 115.81469506 C171.8337005 122.55718363 171.85122594 129.29946879 171.88022733 136.04189557 C171.90457607 141.90929837 171.91217718 147.77663417 171.91390228 153.64408302 C171.91691642 156.12661661 171.92490276 158.6091496 171.93808746 161.09165001 C171.95526901 164.57549545 171.953238 168.05885322 171.94677734 171.54272461 C171.95599213 172.55456818 171.96520691 173.56641174 171.97470093 174.60891724 C171.84569505 196.97627277 161.0799492 215.74186498 145.66064453 231.19238281 C136.12596604 240.07427211 124.92324379 244.72564803 112.59033203 248.25878906 C111.43222015 248.60496277 110.27410828 248.95113647 109.0809021 249.30780029 C103.77488607 250.61541065 98.53874581 250.53855463 93.10058594 250.51757812 C91.9743129 250.52108276 90.84803986 250.5245874 89.68763733 250.52819824 C85.98065955 250.53696913 82.27387411 250.53118189 78.56689453 250.52441406 C75.97911543 250.52576223 73.39133658 250.52770403 70.80355835 250.5302124 C65.38512522 250.53315755 59.96676368 250.52907871 54.54833984 250.51953125 C48.30673412 250.50865948 42.06525921 250.51216672 35.82365668 250.52318406 C29.79338331 250.53339771 23.76317329 250.53226017 17.73289108 250.52642059 C15.17893836 250.52509074 12.62498228 250.52670843 10.07103348 250.5313797 C6.49355621 250.53648662 2.91632616 250.52867562 -0.66113281 250.51757812 C-1.7066481 250.52162659 -2.75216339 250.52567505 -3.82936096 250.52984619 C-13.89692009 250.47229996 -22.41866505 248.78129053 -31.40966797 244.25878906 C-32.55693359 243.71351563 -33.70419922 243.16824219 -34.88623047 242.60644531 C-54.65910692 232.91906289 -68.14740044 216.72526423 -75.44924164 195.91359425 C-79.48527205 183.35942374 -79.09756683 170.78088497 -79.00341797 157.71582031 C-79.00170277 155.17290809 -79.0017767 152.6299941 -79.00354004 150.08708191 C-79.00189611 144.78618132 -78.98396493 139.48560499 -78.95166016 134.18481445 C-78.91472731 128.0958228 -78.90599679 122.00730181 -78.91295767 115.91821271 C-78.91930643 110.00483138 -78.90821113 104.09158689 -78.88899231 98.17822838 C-78.8820116 95.68620258 -78.87883172 93.19416288 -78.87968445 90.70212746 C-78.87163949 75.24000193 -78.84709345 60.471975 -72.28466797 46.13378906 C-71.98608887 45.46984131 -71.68750977 44.80589355 -71.37988281 44.12182617 C-68.26296945 37.49021435 -64.18802989 31.80785453 -59.40966797 26.25878906 C-58.72259766 25.45957031 -58.03552734 24.66035156 -57.32763672 23.83691406 C-42.45829319 7.8365073 -21.54799329 -0.08627181 0 0 Z " fill="#ED3283" transform="translate(209.40966796875,130.7412109375)"/>
<path d="M0 0 C1.0940918 -0.00350464 2.18818359 -0.00700928 3.31542969 -0.01062012 C6.90452567 -0.01936703 10.49342181 -0.01361232 14.08251953 -0.00683594 C16.59538816 -0.0081848 19.10825653 -0.01012718 21.62112427 -0.01263428 C26.87797044 -0.01557618 32.13476549 -0.0115121 37.39160156 -0.00195312 C43.43894194 0.00891745 49.48614726 0.00541051 55.53348434 -0.00560594 C61.38648554 -0.01583518 67.23943612 -0.01467622 73.09244156 -0.00884247 C75.56659082 -0.0075151 78.04074357 -0.00912144 80.51488876 -0.01380157 C83.98397479 -0.01892359 87.45280765 -0.01107677 90.921875 0 C91.92900543 -0.00404846 92.93613586 -0.00809692 93.9737854 -0.01226807 C116.34517774 0.11898369 134.70006658 8.64155223 150.59033203 24.25878906 C151.21681641 24.87238281 151.84330078 25.48597656 152.48876953 26.11816406 C166.47161517 40.92353004 171.7297057 60.43532145 171.75146484 80.32788086 C171.75642975 81.42153458 171.76139465 82.51518829 171.76651001 83.64198303 C171.78107203 87.24733112 171.7879239 90.85263519 171.79345703 94.45800781 C171.79921362 96.97516378 171.80497128 99.49231975 171.81072998 102.00947571 C171.81988434 106.61121697 171.82619134 111.21294573 171.82922673 115.81469506 C171.8337005 122.55718363 171.85122594 129.29946879 171.88022733 136.04189557 C171.90457607 141.90929837 171.91217718 147.77663417 171.91390228 153.64408302 C171.91691642 156.12661661 171.92490276 158.6091496 171.93808746 161.09165001 C171.95526901 164.57549545 171.953238 168.05885322 171.94677734 171.54272461 C171.95599213 172.55456818 171.96520691 173.56641174 171.97470093 174.60891724 C171.84569505 196.97627277 161.0799492 215.74186498 145.66064453 231.19238281 C136.12596604 240.07427211 124.92324379 244.72564803 112.59033203 248.25878906 C111.43222015 248.60496277 110.27410828 248.95113647 109.0809021 249.30780029 C103.77488607 250.61541065 98.53874581 250.53855463 93.10058594 250.51757812 C91.9743129 250.52108276 90.84803986 250.5245874 89.68763733 250.52819824 C85.98065955 250.53696913 82.27387411 250.53118189 78.56689453 250.52441406 C75.97911543 250.52576223 73.39133658 250.52770403 70.80355835 250.5302124 C65.38512522 250.53315755 59.96676368 250.52907871 54.54833984 250.51953125 C48.30673412 250.50865948 42.06525921 250.51216672 35.82365668 250.52318406 C29.79338331 250.53339771 23.76317329 250.53226017 17.73289108 250.52642059 C15.17893836 250.52509074 12.62498228 250.52670843 10.07103348 250.5313797 C6.49355621 250.53648662 2.91632616 250.52867562 -0.66113281 250.51757812 C-1.7066481 250.52162659 -2.75216339 250.52567505 -3.82936096 250.52984619 C-13.89692009 250.47229996 -22.41866505 248.78129053 -31.40966797 244.25878906 C-32.55693359 243.71351563 -33.70419922 243.16824219 -34.88623047 242.60644531 C-54.65910692 232.91906289 -68.14740044 216.72526423 -75.44924164 195.91359425 C-79.48527205 183.35942374 -79.09756683 170.78088497 -79.00341797 157.71582031 C-79.00170277 155.17290809 -79.0017767 152.6299941 -79.00354004 150.08708191 C-79.00189611 144.78618132 -78.98396493 139.48560499 -78.95166016 134.18481445 C-78.91472731 128.0958228 -78.90599679 122.00730181 -78.91295767 115.91821271 C-78.91930643 110.00483138 -78.90821113 104.09158689 -78.88899231 98.17822838 C-78.8820116 95.68620258 -78.87883172 93.19416288 -78.87968445 90.70212746 C-78.87163949 75.24000193 -78.84709345 60.471975 -72.28466797 46.13378906 C-71.98608887 45.46984131 -71.68750977 44.80589355 -71.37988281 44.12182617 C-68.26296945 37.49021435 -64.18802989 31.80785453 -59.40966797 26.25878906 C-58.72259766 25.45957031 -58.03552734 24.66035156 -57.32763672 23.83691406 C-42.45829319 7.8365073 -21.54799329 -0.08627181 0 0 Z M-40.40185547 46.51269531 C-48.09467204 57.03419347 -50.71180187 67.46080342 -50.70019531 80.24194336 C-50.70691254 81.31462967 -50.71362976 82.38731598 -50.72055054 83.49250793 C-50.73947676 87.0227223 -50.74345227 90.55274593 -50.74560547 94.08300781 C-50.75203787 96.55149919 -50.75876656 99.01998981 -50.76577759 101.48847961 C-50.77773749 106.65892299 -50.7814598 111.82929963 -50.78027344 116.99975586 C-50.7800705 123.59888807 -50.8073528 130.19758842 -50.84181786 136.79661846 C-50.86414583 141.89526809 -50.86810914 146.99381482 -50.86705399 152.09250832 C-50.86940182 154.52397968 -50.8781788 156.95545423 -50.89371872 159.38687706 C-51.19273824 177.23941774 -51.19273824 177.23941774 -46.40966797 194.25878906 C-46.10934662 194.94063766 -45.80902527 195.62248627 -45.49960327 196.32499695 C-40.51935157 206.71099665 -30.60050061 214.47285573 -20.40966797 219.25878906 C-12.90878206 221.82763103 -5.99115192 222.69230179 1.90161133 222.63110352 C3.50871475 222.63657951 3.50871475 222.63657951 5.14828491 222.64216614 C8.65387325 222.65020515 12.15898969 222.63671945 15.66455078 222.62207031 C18.11831156 222.62155102 20.57207276 222.62207138 23.02583313 222.62358093 C28.15229555 222.62349151 33.27859972 222.61312187 38.4050293 222.5949707 C44.96522217 222.57224886 51.52518487 222.57174933 58.0854063 222.57848835 C63.14610326 222.58183401 68.20674803 222.57518752 73.26743507 222.56535912 C75.68627461 222.56151987 78.10511996 222.56035359 80.52396202 222.56194496 C83.90516553 222.56231705 87.28607686 222.54965601 90.66723633 222.53344727 C91.6591246 222.53592468 92.65101288 222.5384021 93.67295837 222.54095459 C107.3484595 222.43666952 119.44335701 217.48031627 129.68798828 208.39941406 C140.19748336 197.62667537 143.73452117 184.54034514 143.75146484 169.86987305 C143.75642975 168.83649307 143.76139465 167.8031131 143.76651001 166.73841858 C143.78108678 163.32723314 143.78792728 159.91609425 143.79345703 156.50488281 C143.79921352 154.12321472 143.80497119 151.74154663 143.81072998 149.35987854 C143.82122816 144.36581202 143.82707813 139.37176154 143.83056641 134.37768555 C143.8360392 128.00502242 143.86004647 121.63257422 143.88853836 115.25997829 C143.90724435 110.33805236 143.91237464 105.41617729 143.91390228 100.49421883 C143.91691294 98.14648327 143.92488725 95.79874827 143.93808746 93.4510479 C144.03744694 74.41623891 143.67153211 57.02562975 129.88720703 42.36035156 C120.95468043 34.18739355 109.07782207 28.17664308 96.81785583 28.11161804 C95.88593918 28.10446274 94.95402252 28.09730743 93.99386597 28.0899353 C92.98341217 28.0872464 91.97295837 28.0845575 90.93188477 28.08178711 C89.32110298 28.07193031 89.32110298 28.07193031 87.67778015 28.06187439 C84.1264946 28.04217705 80.57525131 28.03048534 77.02392578 28.02050781 C75.80784197 28.01643229 74.59175816 28.01235676 73.33882332 28.00815773 C66.89946793 27.98731006 60.46013377 27.97300387 54.02075195 27.96362305 C47.38895195 27.95257427 40.7574889 27.91818775 34.12580776 27.87845135 C29.01004945 27.85223085 23.89437069 27.84392625 18.7785511 27.84034157 C16.3350809 27.83548805 13.89161395 27.82390958 11.44820976 27.80530357 C8.01672004 27.78080203 4.5860925 27.78189789 1.15454102 27.78881836 C0.15825684 27.7760083 -0.83802734 27.76319824 -1.86450195 27.75 C-17.26471642 27.86236869 -30.51555843 34.87237783 -40.40185547 46.51269531 Z " fill="#FEFDFD" transform="translate(209.40966796875,130.7412109375)"/>
<path d="M0 0 C10.19034368 8.53363136 17.10897772 19.4709264 21.359375 32.0078125 C21.72675781 33.05582031 21.72675781 33.05582031 22.1015625 34.125 C26.67335679 50.22022101 22.76374268 67.72916556 15.11328125 82.12890625 C5.69598757 97.5866912 -8.95023903 108.7013963 -26.640625 113.0078125 C-45.65780191 116.21525502 -62.75218206 113.29347531 -78.640625 102.0078125 C-92.14272724 91.74327156 -101.28122755 77.39815909 -104.2421875 60.59375 C-106.39996338 41.17376705 -102.53354317 25.14017643 -90.6484375 9.36328125 C-67.31824395 -18.45348799 -28.39174988 -21.4198113 0 0 Z " fill="#FEFCFD" transform="translate(296.640625,205.9921875)"/>
<path d="M0 0 C9.15209377 6.4916014 15.95989351 15.51535371 18.3203125 26.56640625 C19.87561592 36.8276154 17.97705442 47.47381979 11.890625 56.0546875 C3.97142984 65.48609078 -5.29917199 71.53687614 -17.62890625 72.9375 C-27.91958986 73.43624072 -37.6298699 70.24537871 -45.4296875 63.53125 C-54.05595153 55.25422743 -59.14809764 46.08904373 -59.734375 33.9921875 C-59.49105549 24.12254002 -56.16996798 14.83993145 -49.359375 7.6796875 C-48.699375 6.97972656 -48.039375 6.27976563 -47.359375 5.55859375 C-41.94942871 0.29355673 -36.59066805 -2.30466074 -29.359375 -4.3203125 C-28.34617188 -4.60648438 -28.34617188 -4.60648438 -27.3125 -4.8984375 C-18.02689439 -6.90412831 -8.1922738 -4.58441812 0 0 Z " fill="#F52287" transform="translate(276.359375,222.3203125)"/>
<path d="M0 0 C3.02508145 1.73602105 5.41790069 3.83580137 7 7 C7.2262475 12.0069555 6.69507747 15.16929766 3.4375 19.0625 C-1.03699068 21.58448566 -2.93088294 21.72415958 -8 21 C-11.4431146 18.90419111 -13.7468218 16.8734599 -15 13 C-15.45972376 9.97895814 -15.60025379 7.96174492 -13.94921875 5.31640625 C-9.87727285 0.30755244 -6.41405481 -1.09479229 0 0 Z " fill="#FDF8FC" transform="translate(327,178)"/>
</svg>
